<?xml version="1.0" standalone="no"?>
<!DOCTYPE svg PUBLIC "-//W3C//DTD SVG 20010904//EN"
 "http://www.w3.org/TR/2001/REC-SVG-20010904/DTD/svg10.dtd">
<svg version="1.0" xmlns="http://www.w3.org/2000/svg"
 width="3116.000000pt" height="3116.000000pt" viewBox="0 0 3116.000000 3116.000000"
 preserveAspectRatio="xMidYMid meet">
<metadata>
Created by potrace 1.16, written by Peter Selinger 2001-2019
</metadata>
<g transform="translate(0.000000,3116.000000) scale(0.100000,-0.100000)"
fill="#000000" stroke="none">
<path d="M17728 19145 c-2 -1 -120 -5 -263 -9 -153 -4 -261 -11 -263 -16 -2
-6 -31 -10 -65 -10 -98 0 -392 -22 -397 -30 -3 -4 -52 -10 -110 -14 -57 -4
-107 -11 -110 -15 -3 -4 -67 -14 -142 -21 -76 -7 -136 -16 -133 -19 2 -4 -47
-13 -108 -20 -62 -7 -114 -16 -117 -21 -3 -4 -35 -11 -72 -14 -37 -4 -70 -11
-73 -15 -2 -5 -47 -14 -100 -21 -52 -8 -95 -17 -95 -21 0 -4 -25 -11 -55 -14
-30 -4 -55 -11 -55 -15 0 -4 -36 -13 -80 -20 -44 -7 -80 -16 -80 -20 0 -4 -31
-12 -70 -19 -38 -7 -72 -16 -75 -21 -2 -4 -27 -10 -55 -14 -27 -4 -50 -10 -50
-15 0 -5 -27 -14 -60 -20 -33 -7 -60 -16 -60 -20 0 -4 -31 -13 -70 -20 -38 -7
-70 -16 -70 -21 0 -4 -16 -11 -35 -14 -19 -4 -35 -10 -35 -15 0 -4 -29 -13
-65 -20 -36 -7 -65 -17 -65 -21 0 -4 -22 -13 -50 -20 -27 -7 -50 -16 -50 -20
0 -5 -18 -11 -40 -15 -22 -4 -40 -10 -40 -15 0 -4 -22 -13 -50 -20 -27 -7 -50
-15 -50 -20 0 -4 -20 -13 -45 -20 -25 -7 -45 -16 -45 -20 0 -4 -16 -11 -35
-14 -19 -4 -35 -11 -35 -15 0 -5 -20 -14 -45 -21 -25 -7 -45 -16 -45 -21 0 -4
-13 -10 -30 -14 -16 -4 -30 -10 -30 -14 0 -5 -20 -14 -45 -21 -25 -7 -45 -16
-45 -20 0 -4 -18 -12 -40 -19 -22 -6 -40 -16 -40 -20 0 -5 -11 -12 -25 -15
-14 -4 -25 -10 -25 -15 0 -5 -20 -15 -45 -22 -25 -7 -45 -17 -45 -20 0 -4 -16
-13 -35 -19 -19 -6 -35 -15 -35 -20 0 -4 -11 -11 -25 -14 -14 -4 -25 -10 -25
-15 0 -5 -16 -15 -35 -21 -19 -6 -35 -15 -35 -20 0 -5 -13 -11 -29 -15 -16 -3
-40 -15 -53 -25 -13 -11 -27 -23 -33 -28 -5 -4 -25 -14 -42 -21 -18 -7 -30
-17 -27 -22 3 -5 -1 -9 -9 -9 -8 0 -24 -9 -37 -20 -13 -11 -28 -20 -35 -20 -7
0 -22 -9 -35 -20 -13 -11 -26 -20 -30 -20 -6 0 -17 -8 -66 -48 -5 -5 -21 -15
-34 -22 -14 -7 -31 -19 -38 -27 -7 -7 -20 -13 -27 -13 -7 0 -26 -13 -42 -28
-15 -16 -39 -34 -51 -41 -22 -12 -32 -19 -84 -63 -12 -10 -25 -18 -30 -18 -5
0 -7 -4 -3 -9 3 -5 -5 -13 -17 -17 -30 -9 -129 -90 -121 -98 4 -3 1 -6 -5 -6
-6 0 -29 -18 -51 -39 -22 -22 -57 -52 -78 -68 -21 -15 -41 -33 -45 -39 -7 -11
-147 -159 -169 -179 -6 -5 -20 -21 -32 -34 -12 -13 -32 -34 -43 -47 -12 -12
-37 -44 -55 -71 -19 -26 -37 -50 -40 -53 -3 -3 -22 -30 -43 -60 -20 -30 -49
-70 -64 -88 -15 -19 -29 -39 -31 -45 -2 -7 -7 -14 -10 -17 -16 -13 -171 -319
-171 -337 0 -7 -4 -13 -8 -13 -27 0 -119 -300 -151 -493 -51 -304 -29 -614 65
-896 33 -98 68 -179 83 -191 3 -3 13 -18 21 -35 66 -133 165 -281 240 -358
157 -164 210 -217 217 -217 5 0 15 -8 24 -17 8 -10 30 -29 48 -43 19 -14 42
-32 52 -40 10 -8 30 -24 44 -35 14 -11 31 -25 38 -30 6 -6 25 -16 40 -23 15
-6 33 -17 40 -22 47 -40 62 -50 80 -56 12 -4 27 -12 34 -18 33 -29 43 -35 82
-47 22 -7 41 -16 41 -20 0 -4 16 -13 35 -19 19 -6 35 -15 35 -20 0 -5 14 -11
30 -15 17 -4 30 -10 30 -15 0 -4 23 -13 50 -20 28 -7 50 -16 50 -20 0 -4 23
-13 50 -20 28 -7 50 -16 50 -21 0 -4 16 -11 35 -15 19 -3 35 -10 35 -14 0 -4
27 -13 60 -20 33 -7 60 -16 60 -20 0 -4 26 -13 58 -20 31 -7 62 -16 67 -20 6
-4 29 -11 53 -15 23 -4 42 -10 42 -14 0 -4 33 -14 73 -21 39 -7 77 -16 82 -20
6 -4 45 -14 88 -21 42 -7 77 -16 77 -20 0 -4 29 -11 65 -14 36 -4 65 -11 65
-15 0 -4 47 -13 105 -20 58 -8 105 -17 105 -21 0 -4 36 -10 80 -14 44 -4 78
-10 75 -14 -2 -4 61 -14 140 -21 80 -7 145 -16 145 -20 0 -4 81 -13 179 -21
99 -7 178 -16 176 -19 -3 -4 34 -8 82 -9 48 -1 90 -4 93 -6 4 -2 48 -5 98 -6
51 -1 92 -5 92 -9 0 -13 307 -20 816 -20 559 0 952 9 932 21 -8 5 16 9 57 9
114 0 295 12 290 20 -2 3 87 12 198 19 111 7 204 17 207 21 3 4 73 13 157 20
84 7 150 16 148 20 -3 4 38 11 90 15 52 4 93 10 91 14 -3 4 48 13 112 20 64 6
119 16 122 21 3 4 38 12 78 15 39 4 72 11 72 15 0 3 43 12 95 19 52 8 95 17
95 21 0 4 41 13 90 20 50 7 90 16 90 21 0 4 25 11 55 14 30 4 55 11 55 15 0 4
34 13 75 20 41 7 75 16 75 20 0 4 32 13 70 20 39 7 70 17 70 21 0 4 18 10 40
14 22 4 40 10 40 15 0 4 29 13 65 20 36 7 63 16 60 20 -2 4 22 13 55 20 33 7
60 17 60 21 0 5 18 12 40 15 22 4 40 10 40 14 0 5 23 14 50 21 28 7 50 16 50
20 0 3 20 12 45 19 25 7 45 16 45 20 0 4 16 11 35 14 19 4 35 10 35 14 0 4 20
14 44 21 25 7 46 16 48 19 5 12 82 49 116 57 18 3 30 10 27 14 -2 5 14 13 35
20 22 6 40 16 40 21 0 6 6 10 13 10 8 0 24 9 36 19 13 11 36 23 52 26 16 4 29
10 29 15 0 4 10 10 23 14 13 3 34 15 47 26 13 11 29 20 37 20 8 0 12 4 9 9 -3
5 5 11 17 15 13 3 34 15 47 26 13 11 28 20 35 20 11 0 24 10 72 50 7 5 24 15
37 22 14 6 23 14 21 19 -3 4 4 10 15 14 11 3 20 10 20 14 0 5 13 14 30 21 16
7 28 16 25 20 -3 5 7 13 23 18 15 6 44 25 64 44 64 58 89 78 99 78 6 0 7 5 4
10 -3 6 -1 10 4 10 6 0 21 11 33 25 12 14 26 25 31 25 8 0 61 53 233 232 33
35 98 116 144 178 46 63 96 128 112 143 15 16 28 33 28 38 0 5 -641 9 -1631 9
l-1631 0 -44 -45 c-24 -25 -47 -45 -52 -45 -5 0 -37 -27 -72 -60 -35 -33 -67
-60 -70 -60 -4 0 -24 -16 -44 -35 -21 -19 -44 -35 -51 -35 -7 0 -20 -6 -27
-13 -7 -7 -35 -26 -63 -41 -27 -16 -52 -32 -55 -36 -3 -4 -22 -13 -42 -21 -21
-7 -38 -16 -38 -20 0 -4 -13 -10 -30 -14 -16 -4 -30 -10 -30 -14 0 -5 -20 -14
-45 -21 -25 -7 -45 -16 -45 -20 0 -5 -23 -14 -51 -20 -29 -7 -64 -19 -78 -26
-14 -8 -34 -14 -43 -14 -10 0 -18 -4 -18 -9 0 -4 -34 -14 -75 -22 -41 -7 -75
-16 -75 -19 0 -4 -46 -13 -102 -20 -57 -7 -105 -17 -108 -21 -3 -4 -65 -11
-138 -15 -72 -4 -132 -10 -132 -14 0 -11 -248 -12 -255 0 -3 5 -16 10 -28 9
-20 -1 -20 -2 3 -9 20 -6 14 -8 -27 -9 -29 -1 -53 3 -53 7 0 5 -77 12 -172 16
-107 4 -175 11 -179 17 -4 8 -8 7 -12 -2 -4 -10 -6 -10 -6 -1 -1 6 -13 12 -28
12 -47 0 -228 24 -233 31 -3 3 -42 12 -87 19 -46 7 -83 16 -83 20 0 4 -23 10
-50 14 -28 4 -49 10 -46 14 3 5 -22 14 -54 21 -33 8 -58 17 -55 20 2 4 -18 13
-45 20 -27 7 -50 16 -52 19 -2 4 -28 20 -58 36 -30 17 -60 35 -67 40 -31 27
-42 35 -72 50 -45 24 -114 98 -173 186 -28 41 -54 77 -58 80 -4 3 -21 46 -38
95 -65 190 -63 394 5 660 14 55 29 102 33 105 4 3 21 43 38 90 49 138 172 403
197 425 7 6 25 32 41 59 45 76 46 77 97 152 27 40 65 88 85 107 20 19 62 63
92 97 30 34 63 69 74 78 10 9 32 32 49 50 17 17 35 32 40 32 6 0 17 7 26 15
26 24 68 59 96 79 14 11 36 28 47 38 11 9 29 20 39 23 11 4 19 10 19 15 0 5
14 11 30 15 17 4 28 10 25 15 -3 5 10 14 29 20 19 6 36 14 38 18 5 11 108 62
124 62 8 0 14 5 14 10 0 6 5 10 11 10 6 0 33 11 61 25 27 14 56 25 64 25 8 0
14 4 14 9 0 5 21 14 48 20 26 7 61 18 77 25 17 8 49 17 73 21 23 4 42 11 42
15 0 5 25 12 55 15 30 4 55 11 55 15 0 4 41 13 90 20 51 7 90 18 90 24 0 6 5
4 10 -4 5 -8 10 -10 10 -4 0 11 162 34 240 34 22 0 40 4 40 8 0 5 6 9 13 9 6
0 94 4 194 8 186 8 576 -2 569 -14 -3 -4 52 -12 122 -19 69 -7 128 -16 131
-21 3 -5 41 -15 84 -22 42 -7 77 -16 77 -20 0 -4 18 -10 40 -14 22 -4 40 -10
40 -15 0 -4 20 -13 45 -20 25 -7 45 -16 45 -19 0 -4 20 -12 45 -19 25 -7 45
-16 45 -22 0 -5 6 -10 13 -10 8 0 24 -9 37 -20 13 -11 29 -20 36 -20 7 0 26
-13 42 -30 17 -16 35 -30 40 -30 33 0 262 -242 308 -325 11 -20 25 -20 1609
-23 l1598 -2 -6 106 c-8 120 -35 266 -73 387 -31 96 -99 247 -112 247 -5 0
-12 8 -16 18 -15 46 -144 231 -197 282 -108 105 -191 180 -200 180 -6 0 -8 4
-5 9 3 5 -8 14 -24 21 -17 7 -30 16 -30 21 0 5 -6 9 -14 9 -7 0 -24 10 -38 23
-14 12 -35 29 -48 37 -12 8 -28 20 -34 25 -6 6 -26 17 -43 24 -18 7 -33 17
-33 22 0 4 -18 13 -40 19 -22 6 -40 15 -40 20 0 6 -6 10 -14 10 -8 0 -21 6
-28 13 -7 8 -30 20 -51 26 -20 7 -37 16 -37 21 0 4 -22 13 -50 20 -27 7 -50
16 -50 20 0 4 -16 11 -35 14 -19 4 -35 11 -35 15 0 5 -22 14 -50 21 -27 7 -50
15 -50 19 0 4 -29 13 -65 20 -36 7 -65 17 -65 21 0 4 -17 11 -37 15 -21 4 -42
10 -48 15 -5 4 -43 13 -82 20 -40 7 -73 17 -73 21 0 4 -40 13 -90 20 -49 7
-90 16 -90 20 0 4 -29 11 -65 14 -36 4 -65 11 -65 15 0 4 -52 13 -115 20 -63
7 -112 16 -110 20 3 4 -33 11 -80 15 -47 4 -85 10 -85 15 0 4 -58 13 -130 20
-71 7 -130 16 -130 20 0 4 -66 13 -147 20 -82 7 -152 16 -158 20 -5 5 -62 11
-125 15 -63 4 -117 11 -120 15 -5 7 -323 30 -422 30 -32 0 -58 4 -58 9 0 4
-100 12 -222 16 -218 7 -895 14 -900 10z"/>
<path d="M23863 18778 c-6 -13 -24 -61 -39 -108 -15 -47 -30 -87 -34 -90 -4
-3 -42 -113 -84 -245 -121 -376 -149 -460 -157 -465 -3 -3 -34 -93 -69 -200
-121 -376 -153 -470 -161 -470 -5 0 -9 -6 -9 -13 0 -6 -35 -120 -78 -252 -43
-132 -94 -287 -113 -345 -18 -58 -37 -107 -40 -110 -5 -4 -129 -379 -216 -652
-8 -27 -18 -48 -22 -48 -4 0 -13 -19 -20 -42 -13 -46 -146 -460 -190 -593 -14
-44 -29 -82 -32 -85 -4 -3 -32 -84 -64 -180 -31 -96 -79 -242 -106 -325 -27
-82 -49 -156 -49 -162 0 -7 -4 -13 -9 -13 -5 0 -16 -21 -25 -47 -122 -383
-210 -649 -216 -653 -6 -4 -130 -379 -130 -394 0 -3 1857 -5 4126 -4 l4125 3
90 270 c49 148 89 275 89 282 0 7 4 13 9 13 4 0 50 127 101 283 133 409 134
412 141 417 3 3 8 13 12 23 6 16 -112 17 -2398 17 l-2404 0 16 53 c8 28 19 54
23 57 6 4 174 513 211 638 7 23 16 42 20 42 4 0 12 15 18 33 57 185 215 663
220 667 6 5 105 300 198 592 20 64 40 115 45 112 4 -3 8 0 8 7 0 7 36 125 81
263 119 367 143 440 151 446 6 5 88 251 163 490 35 112 48 147 66 182 16 32
199 591 199 609 0 5 -4 7 -10 4 -5 -3 -10 -2 -10 3 0 5 -26 5 -62 0 -80 -10
-3306 -6 -3333 5 -16 7 -23 3 -32 -15z"/>
<path d="M4518 18733 c-258 -2 -468 -7 -468 -12 0 -6 -923 -18 -1822 -23
l-146 0 -61 -187 c-34 -103 -61 -192 -61 -198 0 -6 -4 -13 -10 -15 -8 -3 -49
-121 -175 -515 -27 -83 -53 -150 -57 -147 -4 3 -8 -1 -8 -8 0 -7 -41 -139 -91
-293 -50 -154 -100 -309 -112 -345 -11 -36 -24 -67 -27 -70 -9 -8 -21 -41
-130 -380 -56 -173 -105 -317 -109 -320 -7 -5 -27 -64 -152 -450 -45 -140 -85
-257 -89 -260 -4 -3 -35 -93 -70 -200 -107 -333 -153 -465 -161 -468 -5 -2 -9
-9 -9 -15 0 -7 -31 -106 -69 -222 -37 -115 -88 -271 -112 -345 -24 -74 -47
-136 -51 -138 -4 -2 -24 -56 -44 -120 -20 -64 -60 -189 -89 -277 -29 -88 -63
-193 -75 -232 -13 -40 -26 -73 -30 -73 -4 0 -15 -28 -25 -62 -9 -34 -19 -67
-21 -73 -3 -7 10 -10 33 -9 21 1 784 3 1696 3 1401 1 1657 3 1657 15 0 7 21
78 46 157 100 317 113 357 139 441 14 48 30 88 34 90 3 2 21 48 38 103 17 55
56 179 86 275 30 96 67 214 82 263 14 48 30 87 34 87 5 0 14 19 19 43 6 23 46
150 88 282 68 213 103 326 121 390 4 11 11 23 17 27 16 10 3294 10 3300 0 3
-5 -33 -125 -80 -268 -46 -142 -96 -296 -110 -341 -14 -46 -29 -83 -35 -83 -5
0 -9 -5 -9 -11 0 -7 -41 -138 -91 -293 -127 -393 -133 -410 -140 -416 -4 -3
-25 -61 -47 -130 -23 -69 -71 -215 -107 -325 -36 -110 -65 -206 -65 -212 0
-10 347 -13 1703 -13 l1702 0 69 213 c39 116 73 214 76 217 9 7 28 63 135 395
54 165 101 302 105 305 4 3 13 23 19 45 7 22 16 49 21 60 4 11 38 115 75 230
80 251 107 328 115 335 6 5 34 89 160 480 41 124 76 227 80 230 4 3 58 160
120 350 62 190 116 347 120 350 4 3 44 120 89 260 100 307 132 403 140 410 7
6 28 68 147 435 48 149 90 272 94 275 8 5 220 650 220 668 0 6 6 17 13 24 11
12 37 75 37 91 0 4 -775 6 -1721 5 l-1721 -3 -38 -115 c-21 -63 -52 -160 -70
-215 -18 -55 -35 -102 -39 -105 -4 -3 -19 -45 -35 -95 -128 -408 -200 -630
-206 -635 -9 -6 -27 -61 -135 -403 -61 -189 -92 -274 -99 -267 -5 5 -19 10
-30 9 -21 0 -21 0 -1 -9 11 -5 -694 -9 -1617 -9 -1300 -1 -1637 2 -1641 12 -2
6 4 35 13 62 37 104 180 553 180 563 0 6 4 12 9 14 6 2 157 452 223 666 5 17
13 32 18 32 5 0 11 13 15 29 3 15 37 124 75 242 39 117 70 217 70 221 0 4
-102 7 -227 6 -126 -2 -438 -4 -695 -5z"/>
<path d="M5718 16903 c419 -2 1105 -2 1525 0 419 1 76 2 -763 2 -839 0 -1182
-1 -762 -2z"/>
</g>
</svg>
